<!DOCTYPE svg PUBLIC "-//W3C//DTD SVG 1.1//EN" "http://www.w3.org/Graphics/SVG/1.1/DTD/svg11.dtd">
<!-- Uploaded to: SVG Repo, www.svgrepo.com, Transformed by: SVG Repo Mixer Tools -->
<svg fill="#000000" version="1.1" id="Layer_1" xmlns="http://www.w3.org/2000/svg" xmlns:xlink="http://www.w3.org/1999/xlink" viewBox="0 0 511.25 511.25" xml:space="preserve" width="800px" height="800px" stroke="#000000" stroke-width="7.668719999999999">
<g id="SVGRepo_bgCarrier" stroke-width="0"/>
<g id="SVGRepo_tracerCarrier" stroke-linecap="round" stroke-linejoin="round"/>
<g id="SVGRepo_iconCarrier"> <g> <g> <path d="M0,385.064v85.568h85.2v-85.568H0z M69.2,454.632H16v-53.568h53.2V454.632z"/> </g> </g> <g> <g> <path d="M0,265.624v85.568h85.2v-85.568H0z M69.2,335.192H16v-53.568h53.2V335.192z"/> </g> </g> <g> <g> <path d="M0,146.184v85.568h85.2v-85.568H0z M69.2,215.752H16v-53.568h53.2V215.752z"/> </g> </g> <g> <g> <rect x="149.104" y="44.616" width="170.416" height="16"/> </g> </g> <g> <g> <rect x="149.104" y="87.384" width="362.144" height="16"/> </g> </g> <g> <g> <rect x="149.104" y="159.576" width="170.416" height="16"/> </g> </g> <g> <g> <rect x="149.104" y="202.36" width="362.144" height="16"/> </g> </g> <g> <g> <rect x="149.104" y="279.016" width="170.416" height="16"/> </g> </g> <g> <g> <rect x="149.104" y="321.864" width="362.144" height="16"/> </g> </g> <g> <g> <rect x="149.104" y="398.456" width="170.416" height="16"/> </g> </g> <g> <g> <rect x="149.104" y="441.24" width="362.144" height="16"/> </g> </g> <g> <g> <polygon points="72.752,40.616 29.04,88.792 12.192,71.896 0.848,83.176 29.568,112.008 84.608,51.368 "/> </g> </g> </g>
</svg>