<svg width="20" height="18" viewBox="0 0 20 18" fill="none" xmlns="http://www.w3.org/2000/svg">
<path d="M9.99764 5.92178C8.32837 5.92178 6.96611 7.24475 6.96611 8.86588C6.96611 10.487 8.32837 11.81 9.99764 11.81C11.6669 11.81 13.0292 10.487 13.0292 8.86588C13.0292 7.24475 11.6669 5.92178 9.99764 5.92178ZM19.09 8.86588C19.09 7.64672 19.1014 6.4386 19.0309 5.22165C18.9604 3.80813 18.6283 2.55363 17.564 1.52C16.4974 0.484152 15.2079 0.163902 13.7524 0.0954346C12.497 0.0269673 11.253 0.0380105 9.99992 0.0380105C8.74455 0.0380105 7.50055 0.0269673 6.24745 0.0954346C4.79195 0.163902 3.50019 0.486361 2.43586 1.52C1.36925 2.55584 1.03949 3.80813 0.968986 5.22165C0.898485 6.44081 0.909856 7.64892 0.909856 8.86588C0.909856 10.0828 0.898485 11.2932 0.968986 12.5101C1.03949 13.9236 1.37152 15.1781 2.43586 16.2118C3.50247 17.2476 4.79195 17.5678 6.24745 17.6363C7.50282 17.7048 8.74682 17.6937 9.99992 17.6937C11.2553 17.6937 12.4993 17.7048 13.7524 17.6363C15.2079 17.5678 16.4996 17.2454 17.564 16.2118C18.6306 15.1759 18.9604 13.9236 19.0309 12.5101C19.1036 11.2932 19.09 10.085 19.09 8.86588ZM9.99764 13.3958C7.4164 13.3958 5.33322 11.3727 5.33322 8.86588C5.33322 6.35909 7.4164 4.33599 9.99764 4.33599C12.5789 4.33599 14.6621 6.35909 14.6621 8.86588C14.6621 11.3727 12.5789 13.3958 9.99764 13.3958ZM14.8531 5.2084C14.2504 5.2084 13.7638 4.73575 13.7638 4.15047C13.7638 3.56518 14.2504 3.09254 14.8531 3.09254C15.4558 3.09254 15.9425 3.56518 15.9425 4.15047C15.9426 4.28944 15.9146 4.42709 15.8599 4.55552C15.8052 4.68396 15.725 4.80065 15.6238 4.89892C15.5226 4.9972 15.4024 5.07512 15.2702 5.12822C15.1379 5.18133 14.9962 5.20857 14.8531 5.2084Z" fill="white"/>
</svg>
