<svg width="15" height="18" viewBox="0 0 15 18" fill="none" xmlns="http://www.w3.org/2000/svg">
<path d="M0.727359 6.37113C0.727359 5.60774 0.864771 4.88654 1.13555 4.21343C1.39427 3.55964 1.77864 2.9596 2.26819 2.44527C2.75675 1.93769 3.31582 1.49879 3.92926 1.14123C4.55864 0.771459 5.24002 0.492493 5.95204 0.31308C6.67266 0.129319 7.41468 0.0366457 8.15972 0.0373576C9.31055 0.0373576 10.3816 0.273831 11.3748 0.744817C12.355 1.20721 13.1893 1.91683 13.7906 2.79949C14.411 3.6973 14.7191 4.71287 14.7191 5.84519C14.7191 6.5242 14.6504 7.18848 14.51 7.83805C14.3721 8.48726 14.1529 9.11763 13.8573 9.71512C13.5755 10.2935 13.2071 10.8282 12.764 11.3018C12.3187 11.7678 11.7795 12.1399 11.1798 12.3948C10.5287 12.6719 9.82435 12.8114 9.11352 12.804C8.61945 12.804 8.12638 12.6912 7.63938 12.4645C7.15237 12.2388 6.80278 11.9288 6.59262 11.5314C6.51887 11.8071 6.41783 12.2055 6.28345 12.7265C6.15412 13.2465 6.06723 13.5821 6.02883 13.7342C5.98842 13.8853 5.91365 14.1375 5.80453 14.4868C5.73052 14.7452 5.63559 14.9975 5.52061 15.2413L5.17304 15.9027C5.02273 16.1865 4.85469 16.4611 4.66987 16.725C4.48699 16.982 4.26066 17.2892 3.99089 17.6424L3.84034 17.6944L3.74032 17.5884C3.63221 16.4767 3.57663 15.8114 3.57663 15.5916C3.57663 14.9411 3.65645 14.2111 3.81407 13.4006C3.96866 12.5911 4.21318 11.5736 4.54155 10.35C4.86992 9.12737 5.05785 8.40814 5.10837 8.19521C4.877 7.73698 4.75979 7.13844 4.75979 6.40253C4.75979 5.81478 4.94873 5.26431 5.32763 4.74623C5.70753 4.23011 6.18746 3.97205 6.76944 3.97205C7.21502 3.97205 7.56057 4.1153 7.80811 4.4028C8.05667 4.68932 8.17791 5.05041 8.17791 5.49097C8.17791 5.95803 8.01827 6.63409 7.69697 7.51817C7.37567 8.40323 7.21603 9.06359 7.21603 9.5022C7.21603 9.94669 7.37971 10.3186 7.70707 10.61C8.03014 10.9016 8.45738 11.0596 8.89831 11.0506C9.29842 11.0506 9.66923 10.9623 10.0138 10.7847C10.3529 10.6123 10.6465 10.3661 10.8716 10.0654C11.3618 9.41222 11.7113 8.66966 11.8991 7.8822C11.9961 7.46813 12.0709 7.07466 12.1174 6.70474C12.1669 6.33286 12.1881 5.98158 12.1881 5.64797C12.1881 4.42439 11.788 3.47064 10.9928 2.78771C10.1936 2.10479 9.15293 1.76528 7.87278 1.76528C6.41682 1.76528 5.19931 2.22253 4.22429 3.13997C3.24826 4.05447 2.75722 5.21721 2.75722 6.62723C2.75722 6.93827 2.80571 7.23852 2.89766 7.52897C2.98758 7.81843 3.08559 8.04901 3.19168 8.21974C3.29676 8.38753 3.39578 8.5514 3.4857 8.7025C3.57663 8.85361 3.62412 8.96155 3.62412 9.02631C3.62412 9.22451 3.57057 9.48257 3.46246 9.80147C3.35031 10.1204 3.21795 10.2793 3.05831 10.2793C3.04315 10.2793 2.98051 10.2685 2.87139 10.246C2.49347 10.1364 2.15217 9.93157 1.88222 9.65232C1.59572 9.36292 1.36961 9.02238 1.21638 8.64952C1.06359 8.27798 0.944586 7.89417 0.86073 7.50247C0.77013 7.13185 0.725357 6.75205 0.727359 6.37113Z" fill="white"/>
</svg>
