<svg width="20" height="16" viewBox="0 0 20 16" fill="none" xmlns="http://www.w3.org/2000/svg">
<path d="M19.091 2.51613C18.4224 2.7977 17.6947 3.00035 16.9453 3.07927C17.7234 2.62798 18.3061 1.91501 18.5841 1.07414C17.8539 1.49818 17.054 1.79553 16.2198 1.95298C15.8712 1.58913 15.4495 1.29927 14.9811 1.10146C14.5127 0.903648 14.0076 0.802131 13.4973 0.803232C11.4324 0.803232 9.77175 2.4372 9.77175 4.44234C9.77175 4.72391 9.80671 5.00548 9.86352 5.27639C6.77167 5.11854 4.01414 3.67655 2.18088 1.46877C1.84684 2.02576 1.67179 2.65996 1.67395 3.30538C1.67395 4.56819 2.33165 5.68168 3.33459 6.33655C2.74354 6.31383 2.16633 6.15523 1.64991 5.87367V5.91846C1.64991 7.68682 2.93035 9.15228 4.63688 9.48931C4.31646 9.57056 3.98684 9.61213 3.65579 9.61303C3.41325 9.61303 3.18382 9.58957 2.9522 9.55757C3.42417 10.9996 4.79857 12.0469 6.43518 12.0811C5.15474 13.0602 3.55091 13.6361 1.80942 13.6361C1.49696 13.6361 1.20853 13.6254 0.90918 13.5913C2.56108 14.6259 4.52107 15.2231 6.63183 15.2231C13.4842 15.2231 17.2337 9.68129 17.2337 4.8711C17.2337 4.71325 17.2337 4.5554 17.2228 4.39754C17.9482 3.8792 18.5841 3.23713 19.091 2.51613Z" fill="white"/>
</svg>
